<svg xmlns="http://www.w3.org/2000/svg" xmlns:xlink="http://www.w3.org/1999/xlink" width="500" zoomAndPan="magnify" viewBox="0 0 375 374.999991" height="500" preserveAspectRatio="xMidYMid meet" version="1.0"><defs><clipPath id="733184c8e7"><path d="M 0 46.875 L 375 46.875 L 375 375 L 0 375 Z M 0 46.875 " clip-rule="nonzero"/></clipPath><clipPath id="be2b488e6b"><path d="M 17.25 46.875 L 357.75 46.875 C 362.324219 46.875 366.710938 48.691406 369.949219 51.925781 C 373.183594 55.160156 375 59.546875 375 64.125 L 375 357.75 C 375 362.324219 373.183594 366.710938 369.949219 369.949219 C 366.710938 373.183594 362.324219 375 357.75 375 L 17.25 375 C 12.675781 375 8.289062 373.183594 5.050781 369.949219 C 1.816406 366.710938 0 362.324219 0 357.75 L 0 64.125 C 0 59.546875 1.816406 55.160156 5.050781 51.925781 C 8.289062 48.691406 12.675781 46.875 17.25 46.875 Z M 17.25 46.875 " clip-rule="nonzero"/></clipPath><clipPath id="9019d9b07b"><path d="M 0 46.875 L 375 46.875 L 375 375 L 0 375 Z M 0 46.875 " clip-rule="nonzero"/></clipPath><clipPath id="ebf617879b"><path d="M 17.25 46.875 L 357.75 46.875 C 362.324219 46.875 366.710938 48.691406 369.945312 51.925781 C 373.183594 55.160156 375 59.546875 375 64.125 L 375 357.75 C 375 362.324219 373.183594 366.710938 369.945312 369.945312 C 366.710938 373.179688 362.324219 375 357.75 375 L 17.25 375 C 12.675781 375 8.289062 373.179688 5.054688 369.945312 C 1.816406 366.710938 0 362.324219 0 357.75 L 0 64.125 C 0 59.546875 1.816406 55.160156 5.054688 51.925781 C 8.289062 48.691406 12.675781 46.875 17.25 46.875 Z M 17.25 46.875 " clip-rule="nonzero"/></clipPath><clipPath id="bb82d79146"><path d="M 0 0 L 223.613281 0 L 223.613281 87.664062 L 0 87.664062 Z M 0 0 " clip-rule="nonzero"/></clipPath><clipPath id="22bce47d14"><path d="M 17.25 0 L 206.089844 0 C 215.617188 0 223.339844 7.722656 223.339844 17.25 L 223.339844 70.414062 C 223.339844 79.941406 215.617188 87.664062 206.089844 87.664062 L 17.25 87.664062 C 7.722656 87.664062 0 79.941406 0 70.414062 L 0 17.25 C 0 7.722656 7.722656 0 17.25 0 Z M 17.25 0 " clip-rule="nonzero"/></clipPath><clipPath id="84865516cf"><path d="M 0.0117188 0 L 223.4375 0 L 223.4375 87.75 L 0.0117188 87.75 Z M 0.0117188 0 " clip-rule="nonzero"/></clipPath><clipPath id="1d5a9a03df"><path d="M 17.257812 0 L 206.078125 0 C 215.605469 0 223.324219 7.722656 223.324219 17.25 L 223.324219 70.40625 C 223.324219 79.933594 215.605469 87.65625 206.078125 87.65625 L 17.257812 87.65625 C 7.730469 87.65625 0.0117188 79.933594 0.0117188 70.40625 L 0.0117188 17.25 C 0.0117188 7.722656 7.730469 0 17.257812 0 Z M 17.257812 0 " clip-rule="nonzero"/></clipPath><clipPath id="8cba2aab5c"><path d="M 6.007812 52.949219 L 251.367188 52.949219 L 251.367188 117.902344 L 6.007812 117.902344 Z M 6.007812 52.949219 " clip-rule="nonzero"/></clipPath></defs><rect x="-37.5" width="450" fill="#ffffff" y="-37.499999" height="449.999989" fill-opacity="1"/><rect x="-37.5" width="450" fill="#ffffff" y="-37.499999" height="449.999989" fill-opacity="1"/><g clip-path="url(#733184c8e7)"><g clip-path="url(#be2b488e6b)"><path fill="#ffffff" d="M 0 46.875 L 375.550781 46.875 L 375.550781 375 L 0 375 Z M 0 46.875 " fill-opacity="1" fill-rule="nonzero"/></g></g><g clip-path="url(#9019d9b07b)"><g clip-path="url(#ebf617879b)"><path stroke-linecap="butt" transform="matrix(0.75, 0, 0, 0.75, 0.000734441, 46.873715)" fill="none" stroke-linejoin="miter" d="M 22.999022 0.0017129 L 476.999052 0.0017129 C 483.098011 0.0017129 488.94697 2.423588 493.25947 6.736088 C 497.577178 11.048589 499.999054 16.897547 499.999054 23.001714 L 499.999054 414.50174 C 499.999054 420.600699 497.577178 426.449658 493.25947 430.762158 C 488.94697 435.074658 483.098011 437.501742 476.999052 437.501742 L 22.999022 437.501742 C 16.900064 437.501742 11.051105 435.074658 6.738605 430.762158 C 2.420896 426.449658 -0.000979255 420.600699 -0.000979255 414.50174 L -0.000979255 23.001714 C -0.000979255 16.897547 2.420896 11.048589 6.738605 6.736088 C 11.051105 2.423588 16.900064 0.0017129 22.999022 0.0017129 Z M 22.999022 0.0017129 " stroke="#000000" stroke-width="16" stroke-opacity="1" stroke-miterlimit="4"/></g></g><g clip-path="url(#bb82d79146)"><g clip-path="url(#22bce47d14)"><path fill="#ffffff" d="M 0 0 L 223.273438 0 L 223.273438 87.664062 L 0 87.664062 Z M 0 0 " fill-opacity="1" fill-rule="nonzero"/></g></g><g clip-path="url(#84865516cf)"><g clip-path="url(#1d5a9a03df)"><path stroke-linecap="butt" transform="matrix(0.75, 0, 0, 0.75, 0.00995951, 0)" fill="none" stroke-linejoin="miter" d="M 22.997139 0 L 274.757572 0 C 287.460698 0 297.752365 10.296876 297.752365 23.000002 L 297.752365 93.875006 C 297.752365 106.578132 287.460698 116.875008 274.757572 116.875008 L 22.997139 116.875008 C 10.294013 116.875008 0.00234565 106.578132 0.00234565 93.875006 L 0.00234565 23.000002 C 0.00234565 10.296876 10.294013 0 22.997139 0 Z M 22.997139 0 " stroke="#000000" stroke-width="16" stroke-opacity="1" stroke-miterlimit="4"/></g></g><g clip-path="url(#8cba2aab5c)"><path fill="#ffffff" d="M 6.007812 52.949219 L 251.347656 52.949219 L 251.347656 117.902344 L 6.007812 117.902344 Z M 6.007812 52.949219 " fill-opacity="1" fill-rule="nonzero"/></g></svg>